<?xml version="1.0" standalone="no"?>
<!DOCTYPE svg PUBLIC "-//W3C//DTD SVG 20010904//EN"
 "http://www.w3.org/TR/2001/REC-SVG-20010904/DTD/svg10.dtd">
<svg version="1.0" xmlns="http://www.w3.org/2000/svg"
 width="835.000000pt" height="740.000000pt" viewBox="0 0 835.000000 740.000000"
 preserveAspectRatio="xMidYMid meet">

<g transform="translate(0.000000,740.000000) scale(0.100000,-0.100000)"
fill="#000000" stroke="none">
<path d="M59 7389 c-14 -6 -31 -21 -38 -35 -9 -20 47 -754 279 -3641 159
-1989 290 -3625 290 -3635 0 -10 11 -30 25 -43 l24 -25 3510 0 c2650 0 3516 3
3536 12 16 7 29 24 35 47 5 20 147 1383 315 3029 281 2749 305 2996 291 3017
-9 13 -24 26 -34 29 -10 4 -1852 285 -4093 626 -2241 341 -4083 622 -4094 624
-11 2 -32 0 -46 -5z"/>
</g>
</svg>
