<svg width="138" height="155" viewBox="0 0 138 155" fill="none" xmlns="http://www.w3.org/2000/svg">
<path d="M82.4551 35.6512C67.5318 28.3453 56.1303 42.5471 50.3912 52.4715C44.2237 63.1367 42.947 75.1515 41.631 86.851C40.3624 98.1301 40.4677 100.658 39.9998 112C39.9089 114.204 34.8562 124.625 35.0264 126.828C35.0565 127.218 34.9663 126.049 34.9362 125.66" stroke="#F96617" stroke-width="4" stroke-linecap="round"/>
<path d="M17.5001 116C45.5624 109.987 133.221 82.7748 128 60M133.779 25.5C117.5 25.5 89.6681 43.1127 79.0044 54.2633C68.3405 65.4139 62.3291 79.7449 56.3984 93.6774C50.681 107.109 42.8946 124.241 38 138" stroke="#F96617" stroke-width="3" stroke-linecap="round"/>
<path d="M4.54505 111.086C31.5646 104.818 59.0136 98.3476 83.7962 84.8805C94.9369 78.8266 130.16 56.2589 113.719 38.3013C101.398 24.8447 80.8395 36.9053 71.2059 47.3522C60.8531 58.579 54.9398 72.9341 49.1079 86.8907C43.4857 100.346 37.8406 113.958 33.0058 127.732" stroke="#D99A2D" stroke-width="8" stroke-linecap="round"/>
</svg>
